<?xml version="1.0" encoding="utf-8"?>
<!-- Generator: Adobe Illustrator 23.0.3, SVG Export Plug-In . SVG Version: 6.00 Build 0)  -->
<svg version="1.1" id="Layer_1" xmlns="http://www.w3.org/2000/svg" xmlns:xlink="http://www.w3.org/1999/xlink" x="0px" y="0px"
	 viewBox="0 0 338 408" style="enable-background:new 0 0 338 408;" xml:space="preserve">
<style type="text/css">
	.st0{fill-rule:evenodd;clip-rule:evenodd;fill-opacity:0;}
	.st1{fill:none;stroke:#000000;stroke-width:2;stroke-linecap:round;stroke-linejoin:bevel;}
	
		.st2{fill-rule:evenodd;clip-rule:evenodd;fill-opacity:0;stroke:#000000;stroke-linecap:square;stroke-linejoin:bevel;stroke-opacity:0;}
	.st3{fill-rule:evenodd;clip-rule:evenodd;fill:#1B9E77;stroke:#000000;stroke-linecap:square;stroke-linejoin:bevel;}
	.st4{fill-rule:evenodd;clip-rule:evenodd;fill:#FC2A2D;stroke:#000000;stroke-linecap:square;stroke-linejoin:bevel;}
	.st5{fill-rule:evenodd;clip-rule:evenodd;fill:#D95F02;stroke:#000000;stroke-linecap:square;stroke-linejoin:bevel;}
	.st6{fill-rule:evenodd;clip-rule:evenodd;fill:#2481CC;stroke:#000000;stroke-linecap:square;stroke-linejoin:bevel;}
	.st7{fill-rule:evenodd;clip-rule:evenodd;fill:#7570B3;stroke:#000000;stroke-linecap:square;stroke-linejoin:bevel;}
	.st8{fill-rule:evenodd;clip-rule:evenodd;fill:#FFFFFF;stroke:#000000;stroke-linecap:square;stroke-linejoin:bevel;}
	.st9{fill-rule:evenodd;clip-rule:evenodd;fill-opacity:0;stroke:#000000;stroke-linecap:square;stroke-linejoin:bevel;}
	.st10{font-family:'Baskerville';}
	.st11{font-size:10.0005px;}
	.st12{font-size:9.989px;}
</style>
<title>PopART SVG Image</title>
<desc>A haplotype network image created by PopART.</desc>
<g transform="matrix(1,0,0,1,0,0)">
</g>
<g transform="matrix(0.99885,0,0,0.99885,-234.73,-72.916)">
</g>
<g transform="matrix(0.99885,0,0,0.99885,-234.73,-72.916)">
	<path vector-effect="non-scaling-stroke" class="st0" d="M235,73h305.4v408.5H235V73"/>
</g>
<g transform="matrix(0.99885,0,0,0.99885,-234.73,-72.916)">
</g>
<g transform="matrix(0.99885,0,0,0.99885,-234.73,-72.916)">
</g>
<g transform="matrix(0.99885,0,0,0.99885,-234.73,-72.916)">
	<line vector-effect="none" class="st1" x1="480.2" y1="352.4" x2="446.9" y2="287.9"/>
	<line vector-effect="none" class="st1" x1="469" y1="320" x2="460" y2="324"/>
</g>
<g transform="matrix(0.99885,0,0,0.99885,-234.73,-72.916)">
</g>
<g transform="matrix(0.99885,0,0,0.99885,-234.73,-72.916)">
</g>
<g transform="matrix(0.99885,0,0,0.99885,-234.73,-72.916)">
	<line vector-effect="none" class="st1" x1="477.9" y1="454.2" x2="480.2" y2="352.4"/>
	<line vector-effect="none" class="st1" x1="473" y1="405" x2="483" y2="405"/>
</g>
<g transform="matrix(0.99885,0,0,0.99885,-234.73,-72.916)">
</g>
<g transform="matrix(0.99885,0,0,0.99885,-234.73,-72.916)">
</g>
<g transform="matrix(0.99885,0,0,0.99885,-234.73,-72.916)">
	<line vector-effect="none" class="st1" x1="520.7" y1="298.9" x2="480.2" y2="352.4"/>
	<line vector-effect="none" class="st1" x1="497" y1="320" x2="505" y2="326"/>
</g>
<g transform="matrix(0.99885,0,0,0.99885,-234.73,-72.916)">
</g>
<g transform="matrix(0.99885,0,0,0.99885,-234.73,-72.916)">
</g>
<g transform="matrix(0.99885,0,0,0.99885,-234.73,-72.916)">
	<line vector-effect="none" class="st1" x1="336" y1="193.4" x2="321.3" y2="130.5"/>
	<line vector-effect="none" class="st1" x1="334" y1="163" x2="324" y2="165"/>
</g>
<g transform="matrix(0.99885,0,0,0.99885,-234.73,-72.916)">
</g>
<g transform="matrix(0.99885,0,0,0.99885,-234.73,-72.916)">
</g>
<g transform="matrix(0.99885,0,0,0.99885,-234.73,-72.916)">
	<line vector-effect="none" class="st1" x1="336" y1="193.4" x2="446.9" y2="287.9"/>
	<line vector-effect="none" class="st1" x1="360" y1="207" x2="353" y2="215"/>
	<line vector-effect="none" class="st1" x1="364" y1="210" x2="357" y2="218"/>
	<line vector-effect="none" class="st1" x1="368" y1="214" x2="361" y2="221"/>
	<line vector-effect="none" class="st1" x1="371" y1="217" x2="365" y2="224"/>
	<line vector-effect="none" class="st1" x1="375" y1="220" x2="369" y2="228"/>
	<line vector-effect="none" class="st1" x1="379" y1="223" x2="373" y2="231"/>
	<line vector-effect="none" class="st1" x1="383" y1="227" x2="376" y2="234"/>
	<line vector-effect="none" class="st1" x1="387" y1="230" x2="380" y2="237"/>
	<line vector-effect="none" class="st1" x1="390" y1="233" x2="384" y2="241"/>
	<line vector-effect="none" class="st1" x1="394" y1="236" x2="388" y2="244"/>
	<line vector-effect="none" class="st1" x1="398" y1="240" x2="392" y2="247"/>
	<line vector-effect="none" class="st1" x1="402" y1="243" x2="395" y2="250"/>
	<line vector-effect="none" class="st1" x1="406" y1="246" x2="399" y2="254"/>
	<line vector-effect="none" class="st1" x1="409" y1="249" x2="403" y2="257"/>
	<line vector-effect="none" class="st1" x1="413" y1="253" x2="407" y2="260"/>
	<line vector-effect="none" class="st1" x1="417" y1="256" x2="411" y2="263"/>
	<line vector-effect="none" class="st1" x1="421" y1="259" x2="414" y2="267"/>
	<line vector-effect="none" class="st1" x1="425" y1="262" x2="418" y2="270"/>
</g>
<g transform="matrix(0.99885,0,0,0.99885,-234.73,-72.916)">
</g>
<g transform="matrix(0.99885,0,0,0.99885,-234.73,-72.916)">
</g>
<g transform="matrix(0.99885,0,0,0.99885,-234.73,-72.916)">
	<line vector-effect="none" class="st1" x1="306.5" y1="350.8" x2="282.7" y2="397.3"/>
	<line vector-effect="none" class="st1" x1="291" y1="369" x2="300" y2="374"/>
</g>
<g transform="matrix(0.99885,0,0,0.99885,-234.73,-72.916)">
</g>
<g transform="matrix(0.99885,0,0,0.99885,-234.73,-72.916)">
</g>
<g transform="matrix(0.99885,0,0,0.99885,-234.73,-72.916)">
	<line vector-effect="none" class="st1" x1="306.5" y1="350.8" x2="480.2" y2="352.4"/>
	<line vector-effect="none" class="st1" x1="335" y1="346" x2="335" y2="356"/>
	<line vector-effect="none" class="st1" x1="340" y1="346" x2="340" y2="356"/>
	<line vector-effect="none" class="st1" x1="345" y1="346" x2="345" y2="356"/>
	<line vector-effect="none" class="st1" x1="350" y1="346" x2="350" y2="356"/>
	<line vector-effect="none" class="st1" x1="355" y1="346" x2="355" y2="356"/>
	<line vector-effect="none" class="st1" x1="360" y1="346" x2="360" y2="356"/>
	<line vector-effect="none" class="st1" x1="365" y1="346" x2="365" y2="356"/>
	<line vector-effect="none" class="st1" x1="370" y1="346" x2="370" y2="356"/>
	<line vector-effect="none" class="st1" x1="375" y1="346" x2="375" y2="356"/>
	<line vector-effect="none" class="st1" x1="380" y1="346" x2="380" y2="356"/>
	<line vector-effect="none" class="st1" x1="385" y1="346" x2="385" y2="356"/>
	<line vector-effect="none" class="st1" x1="390" y1="346" x2="390" y2="356"/>
	<line vector-effect="none" class="st1" x1="395" y1="346" x2="395" y2="356"/>
	<line vector-effect="none" class="st1" x1="400" y1="346" x2="400" y2="356"/>
	<line vector-effect="none" class="st1" x1="405" y1="346" x2="405" y2="356"/>
	<line vector-effect="none" class="st1" x1="410" y1="346" x2="410" y2="356"/>
	<line vector-effect="none" class="st1" x1="415" y1="346" x2="415" y2="356"/>
	<line vector-effect="none" class="st1" x1="420" y1="346" x2="420" y2="356"/>
	<line vector-effect="none" class="st1" x1="425" y1="346" x2="425" y2="356"/>
	<line vector-effect="none" class="st1" x1="430" y1="346" x2="430" y2="356"/>
	<line vector-effect="none" class="st1" x1="435" y1="346" x2="435" y2="356"/>
	<line vector-effect="none" class="st1" x1="440" y1="347" x2="440" y2="357"/>
	<line vector-effect="none" class="st1" x1="445" y1="347" x2="445" y2="357"/>
</g>
<g transform="matrix(0.99885,0,0,0.99885,-234.73,-72.916)">
</g>
<g transform="matrix(0.99885,0,0,0.99885,-234.73,-72.916)">
</g>
<g transform="matrix(0.99885,0,0,0.99885,-234.73,-72.916)">
	<line vector-effect="none" class="st1" x1="306.5" y1="350.8" x2="336" y2="193.4"/>
	<line vector-effect="none" class="st1" x1="305" y1="327" x2="315" y2="329"/>
	<line vector-effect="none" class="st1" x1="306" y1="322" x2="316" y2="324"/>
	<line vector-effect="none" class="st1" x1="307" y1="317" x2="317" y2="319"/>
	<line vector-effect="none" class="st1" x1="308" y1="312" x2="318" y2="314"/>
	<line vector-effect="none" class="st1" x1="309" y1="308" x2="319" y2="309"/>
	<line vector-effect="none" class="st1" x1="310" y1="303" x2="320" y2="304"/>
	<line vector-effect="none" class="st1" x1="311" y1="298" x2="321" y2="300"/>
	<line vector-effect="none" class="st1" x1="312" y1="293" x2="322" y2="295"/>
	<line vector-effect="none" class="st1" x1="313" y1="288" x2="322" y2="290"/>
	<line vector-effect="none" class="st1" x1="314" y1="283" x2="323" y2="285"/>
	<line vector-effect="none" class="st1" x1="314" y1="278" x2="324" y2="280"/>
	<line vector-effect="none" class="st1" x1="315" y1="273" x2="325" y2="275"/>
	<line vector-effect="none" class="st1" x1="316" y1="268" x2="326" y2="270"/>
	<line vector-effect="none" class="st1" x1="317" y1="263" x2="327" y2="265"/>
	<line vector-effect="none" class="st1" x1="318" y1="258" x2="328" y2="260"/>
	<line vector-effect="none" class="st1" x1="319" y1="253" x2="329" y2="255"/>
	<line vector-effect="none" class="st1" x1="320" y1="249" x2="330" y2="250"/>
	<line vector-effect="none" class="st1" x1="321" y1="244" x2="331" y2="245"/>
	<line vector-effect="none" class="st1" x1="322" y1="239" x2="332" y2="241"/>
	<line vector-effect="none" class="st1" x1="323" y1="234" x2="333" y2="236"/>
	<line vector-effect="none" class="st1" x1="324" y1="229" x2="334" y2="231"/>
	<line vector-effect="none" class="st1" x1="325" y1="224" x2="334" y2="226"/>
	<line vector-effect="none" class="st1" x1="326" y1="219" x2="335" y2="221"/>
</g>
<g transform="matrix(0.99885,0,0,0.99885,-234.73,-72.916)">
</g>
<g transform="matrix(0.99885,0,0,0.99885,-234.73,-72.916)">
</g>
<g transform="matrix(0.99885,0,0,0.99885,-234.73,-72.916)">
	<line vector-effect="none" class="st1" x1="313.6" y1="451.9" x2="282.7" y2="397.3"/>
	<line vector-effect="none" class="st1" x1="304" y1="426" x2="296" y2="431"/>
	<line vector-effect="none" class="st1" x1="302" y1="422" x2="293" y2="427"/>
</g>
<g transform="matrix(0.99885,0,0,0.99885,-234.73,-72.916)">
</g>
<g transform="matrix(0.99885,0,0,0.99885,-234.73,-72.916)">
</g>
<g transform="matrix(0.99885,0,0,0.99885,-234.73,-72.916)">
	<line vector-effect="none" class="st1" x1="313.6" y1="451.9" x2="477.9" y2="454.2"/>
	<line vector-effect="none" class="st1" x1="338" y1="447" x2="338" y2="457"/>
	<line vector-effect="none" class="st1" x1="343" y1="447" x2="343" y2="457"/>
	<line vector-effect="none" class="st1" x1="348" y1="447" x2="348" y2="457"/>
	<line vector-effect="none" class="st1" x1="353" y1="447" x2="353" y2="457"/>
	<line vector-effect="none" class="st1" x1="358" y1="447" x2="358" y2="457"/>
	<line vector-effect="none" class="st1" x1="363" y1="447" x2="363" y2="457"/>
	<line vector-effect="none" class="st1" x1="368" y1="447" x2="368" y2="457"/>
	<line vector-effect="none" class="st1" x1="373" y1="447" x2="373" y2="457"/>
	<line vector-effect="none" class="st1" x1="378" y1="447" x2="378" y2="457"/>
	<line vector-effect="none" class="st1" x1="383" y1="447" x2="383" y2="457"/>
	<line vector-effect="none" class="st1" x1="388" y1="447" x2="388" y2="457"/>
	<line vector-effect="none" class="st1" x1="393" y1="447" x2="393" y2="457"/>
	<line vector-effect="none" class="st1" x1="398" y1="448" x2="398" y2="458"/>
	<line vector-effect="none" class="st1" x1="403" y1="448" x2="403" y2="458"/>
	<line vector-effect="none" class="st1" x1="408" y1="448" x2="408" y2="458"/>
	<line vector-effect="none" class="st1" x1="413" y1="448" x2="413" y2="458"/>
	<line vector-effect="none" class="st1" x1="418" y1="448" x2="418" y2="458"/>
	<line vector-effect="none" class="st1" x1="423" y1="448" x2="423" y2="458"/>
	<line vector-effect="none" class="st1" x1="428" y1="448" x2="428" y2="458"/>
	<line vector-effect="none" class="st1" x1="433" y1="448" x2="433" y2="458"/>
	<line vector-effect="none" class="st1" x1="438" y1="448" x2="438" y2="458"/>
	<line vector-effect="none" class="st1" x1="443" y1="448" x2="443" y2="458"/>
	<line vector-effect="none" class="st1" x1="448" y1="448" x2="448" y2="458"/>
</g>
<g transform="matrix(0.99885,0,0,0.99885,-234.73,-72.916)">
</g>
<g transform="matrix(0.99885,0,0,0.99885,-131.848,59.931)">
</g>
<g transform="matrix(0.99885,0,0,0.99885,-131.848,59.931)">
	<path vector-effect="non-scaling-stroke" class="st2" d="M351.4,154.9c0,4.1-3.4,7.5-7.5,7.5s-7.5-3.4-7.5-7.5s3.4-7.5,7.5-7.5
		S351.4,150.8,351.4,154.9"/>
</g>
<g transform="matrix(0.99885,0,0,0.99885,-131.848,59.931)">
</g>
<g transform="matrix(0.99885,0,0,0.99885,-131.848,59.931)">
</g>
<g transform="matrix(0.99885,0,0,0.99885,-131.848,59.931)">
	<path vector-effect="none" class="st3" d="M351.4,154.9c0,4.1-3.4,7.5-7.5,7.5s-7.5-3.4-7.5-7.5s3.4-7.5,7.5-7.5
		S351.4,150.8,351.4,154.9"/>
</g>
<g transform="matrix(0.99885,0,0,0.99885,-131.848,59.931)">
</g>
<g transform="matrix(0.99885,0,0,0.99885,-188.783,54.9367)">
</g>
<g transform="matrix(0.99885,0,0,0.99885,-188.783,54.9367)">
	<path vector-effect="non-scaling-stroke" class="st2" d="M457.9,224.4c0,13.1-10.6,23.7-23.7,23.7s-23.7-10.6-23.7-23.7
		c0-13.1,10.6-23.7,23.7-23.7S457.9,211.3,457.9,224.4"/>
</g>
<g transform="matrix(0.99885,0,0,0.99885,-188.783,54.9367)">
</g>
<g transform="matrix(0.99885,0,0,0.99885,-188.783,54.9367)">
</g>
<g transform="matrix(0.99885,0,0,0.99885,-188.783,54.9367)">
	<path vector-effect="none" class="st3" d="M457.9,224.4c0,13.1-10.6,23.7-23.7,23.7s-23.7-10.6-23.7-23.7
		c0-13.1,10.6-23.7,23.7-23.7S457.9,211.3,457.9,224.4"/>
</g>
<g transform="matrix(0.99885,0,0,0.99885,-188.783,54.9367)">
</g>
<g transform="matrix(0.99885,0,0,0.99885,-184.787,83.9034)">
</g>
<g transform="matrix(0.99885,0,0,0.99885,-184.787,83.9034)">
	<path vector-effect="non-scaling-stroke" class="st2" d="M435.4,297.2c0,4.1-3.4,7.5-7.5,7.5s-7.5-3.4-7.5-7.5s3.4-7.5,7.5-7.5
		S435.4,293,435.4,297.2"/>
</g>
<g transform="matrix(0.99885,0,0,0.99885,-184.787,83.9034)">
</g>
<g transform="matrix(0.99885,0,0,0.99885,-184.787,83.9034)">
</g>
<g transform="matrix(0.99885,0,0,0.99885,-184.787,83.9034)">
	<path vector-effect="none" class="st3" d="M435.4,297.2c0,4.1-3.4,7.5-7.5,7.5s-7.5-3.4-7.5-7.5s3.4-7.5,7.5-7.5
		S435.4,293,435.4,297.2"/>
</g>
<g transform="matrix(0.99885,0,0,0.99885,-184.787,83.9034)">
</g>
<g transform="matrix(0.99885,0,0,0.99885,-217.749,55.9356)">
</g>
<g transform="matrix(0.99885,0,0,0.99885,-217.749,55.9356)">
	<path vector-effect="non-scaling-stroke" class="st2" d="M514.3,169.9c0,5.9-4.7,10.6-10.6,10.6s-10.6-4.7-10.6-10.6
		s4.7-10.6,10.6-10.6S514.3,164.1,514.3,169.9"/>
</g>
<g transform="matrix(0.99885,0,0,0.99885,-217.749,55.9356)">
</g>
<g transform="matrix(0.99885,0,0,0.99885,-217.749,55.9356)">
</g>
<g transform="matrix(0.99885,0,0,0.99885,-217.749,55.9356)">
	<path vector-effect="none" class="st3" d="M514.3,169.9c0,5.9-4.7,10.6-10.6,10.6s-10.6-4.7-10.6-10.6s4.7-10.6,10.6-10.6
		S514.3,164.1,514.3,169.9"/>
</g>
<g transform="matrix(0.99885,0,0,0.99885,-217.749,55.9356)">
</g>
<g transform="matrix(0.99885,0,0,0.99885,-1.9977,-20.9758)">
</g>
<g transform="matrix(0.99885,0,0,0.99885,-1.9977,-20.9758)">
	<path vector-effect="non-scaling-stroke" class="st2" d="M115.4,78.5c0,14.9-12.1,27-27,27s-27-12.1-27-27s12.1-27,27-27
		C103.3,51.4,115.4,63.5,115.4,78.5"/>
</g>
<g transform="matrix(0.99885,0,0,0.99885,-1.9977,-20.9758)">
</g>
<g transform="matrix(0.99885,0,0,0.99885,-1.9977,-20.9758)">
</g>
<g transform="matrix(0.99885,0,0,0.99885,-1.9977,-20.9758)">
	<path vector-effect="none" class="st4" d="M88.3,78.5h27H88.3"/>
</g>
<g transform="matrix(0.99885,0,0,0.99885,-1.9977,-20.9758)">
</g>
<g transform="matrix(0.99885,0,0,0.99885,-1.9977,-20.9758)">
</g>
<g transform="matrix(0.99885,0,0,0.99885,-1.9977,-20.9758)">
	<path vector-effect="none" class="st5" d="M115.4,78.5c0,14.9-12.1,27-27,27s-27-12.1-27-27s12.1-27,27-27
		C103.3,51.4,115.4,63.5,115.4,78.5"/>
</g>
<g transform="matrix(0.99885,0,0,0.99885,-1.9977,-20.9758)">
</g>
<g transform="matrix(0.99885,0,0,0.99885,-48.9436,-4.99425)">
</g>
<g transform="matrix(0.99885,0,0,0.99885,-48.9436,-4.99425)">
	<path vector-effect="non-scaling-stroke" class="st2" d="M163,125.4c0,7.2-5.8,13-13,13s-13-5.8-13-13s5.8-13,13-13
		C157.2,112.4,163,118.2,163,125.4"/>
</g>
<g transform="matrix(0.99885,0,0,0.99885,-48.9436,-4.99425)">
</g>
<g transform="matrix(0.99885,0,0,0.99885,-48.9436,-4.99425)">
</g>
<g transform="matrix(0.99885,0,0,0.99885,-48.9436,-4.99425)">
	<path vector-effect="none" class="st4" d="M150,125.4h13H150"/>
</g>
<g transform="matrix(0.99885,0,0,0.99885,-48.9436,-4.99425)">
</g>
<g transform="matrix(0.99885,0,0,0.99885,-48.9436,-4.99425)">
</g>
<g transform="matrix(0.99885,0,0,0.99885,-48.9436,-4.99425)">
	<path vector-effect="none" class="st5" d="M163,125.4c0,7.2-5.8,13-13,13s-13-5.8-13-13s5.8-13,13-13
		C157.2,112.4,163,118.2,163,125.4"/>
</g>
<g transform="matrix(0.99885,0,0,0.99885,-48.9436,-4.99425)">
</g>
<g transform="matrix(0.99885,0,0,0.99885,-189.781,-98.8861)">
</g>
<g transform="matrix(0.99885,0,0,0.99885,-189.781,-98.8861)">
	<path vector-effect="non-scaling-stroke" class="st2" d="M257.5,423.3c0,11-8.9,19.8-19.8,19.8s-19.8-8.9-19.8-19.8
		c0-11,8.9-19.8,19.8-19.8S257.5,412.3,257.5,423.3"/>
</g>
<g transform="matrix(0.99885,0,0,0.99885,-189.781,-98.8861)">
</g>
<g transform="matrix(0.99885,0,0,0.99885,-189.781,-98.8861)">
</g>
<g transform="matrix(0.99885,0,0,0.99885,-189.781,-98.8861)">
	<path vector-effect="none" class="st4" d="M237.7,423.3h19.8H237.7"/>
</g>
<g transform="matrix(0.99885,0,0,0.99885,-189.781,-98.8861)">
</g>
<g transform="matrix(0.99885,0,0,0.99885,-189.781,-98.8861)">
</g>
<g transform="matrix(0.99885,0,0,0.99885,-189.781,-98.8861)">
	<path vector-effect="none" class="st6" d="M237.7,423.3h19.8H237.7"/>
</g>
<g transform="matrix(0.99885,0,0,0.99885,-189.781,-98.8861)">
</g>
<g transform="matrix(0.99885,0,0,0.99885,-189.781,-98.8861)">
</g>
<g transform="matrix(0.99885,0,0,0.99885,-189.781,-98.8861)">
	<path vector-effect="none" class="st7" d="M257.5,423.3c0,11-8.9,19.8-19.8,19.8s-19.8-8.9-19.8-19.8c0-11,8.9-19.8,19.8-19.8
		S257.5,412.3,257.5,423.3"/>
</g>
<g transform="matrix(0.99885,0,0,0.99885,-189.781,-98.8861)">
</g>
<g transform="matrix(0.99885,0,0,0.99885,-149.827,-46.9459)">
</g>
<g transform="matrix(0.99885,0,0,0.99885,-149.827,-46.9459)">
	<path vector-effect="non-scaling-stroke" class="st2" d="M229,324.8c0,4.1-3.4,7.5-7.5,7.5s-7.5-3.4-7.5-7.5s3.4-7.5,7.5-7.5
		S229,320.6,229,324.8"/>
</g>
<g transform="matrix(0.99885,0,0,0.99885,-149.827,-46.9459)">
</g>
<g transform="matrix(0.99885,0,0,0.99885,-149.827,-46.9459)">
</g>
<g transform="matrix(0.99885,0,0,0.99885,-149.827,-46.9459)">
	<path vector-effect="none" class="st4" d="M221.5,324.8h7.5H221.5"/>
</g>
<g transform="matrix(0.99885,0,0,0.99885,-149.827,-46.9459)">
</g>
<g transform="matrix(0.99885,0,0,0.99885,-149.827,-46.9459)">
</g>
<g transform="matrix(0.99885,0,0,0.99885,-149.827,-46.9459)">
	<path vector-effect="none" class="st6" d="M221.5,324.8h7.5H221.5"/>
</g>
<g transform="matrix(0.99885,0,0,0.99885,-149.827,-46.9459)">
</g>
<g transform="matrix(0.99885,0,0,0.99885,-149.827,-46.9459)">
</g>
<g transform="matrix(0.99885,0,0,0.99885,-149.827,-46.9459)">
	<path vector-effect="none" class="st7" d="M229,324.8c0,4.1-3.4,7.5-7.5,7.5s-7.5-3.4-7.5-7.5s3.4-7.5,7.5-7.5S229,320.6,229,324.8
		"/>
</g>
<g transform="matrix(0.99885,0,0,0.99885,-149.827,-46.9459)">
</g>
<g transform="matrix(0.99885,0,0,0.99885,-234.73,-72.916)">
</g>
<g transform="matrix(0.99885,0,0,0.99885,-234.73,-72.916)">
	<path vector-effect="non-scaling-stroke" class="st2" d="M321.1,451.9c0,4.1-3.4,7.5-7.5,7.5s-7.5-3.4-7.5-7.5s3.4-7.5,7.5-7.5
		S321.1,447.7,321.1,451.9"/>
</g>
<g transform="matrix(0.99885,0,0,0.99885,-234.73,-72.916)">
</g>
<g transform="matrix(0.99885,0,0,0.99885,-234.73,-72.916)">
</g>
<g transform="matrix(0.99885,0,0,0.99885,-234.73,-72.916)">
	<path vector-effect="none" class="st4" d="M313.6,451.9h7.5H313.6"/>
</g>
<g transform="matrix(0.99885,0,0,0.99885,-234.73,-72.916)">
</g>
<g transform="matrix(0.99885,0,0,0.99885,-234.73,-72.916)">
</g>
<g transform="matrix(0.99885,0,0,0.99885,-234.73,-72.916)">
	<path vector-effect="none" class="st6" d="M313.6,451.9h7.5H313.6"/>
</g>
<g transform="matrix(0.99885,0,0,0.99885,-234.73,-72.916)">
</g>
<g transform="matrix(0.99885,0,0,0.99885,-234.73,-72.916)">
</g>
<g transform="matrix(0.99885,0,0,0.99885,-234.73,-72.916)">
	<path vector-effect="none" class="st7" d="M321.1,451.9c0,4.1-3.4,7.5-7.5,7.5s-7.5-3.4-7.5-7.5s3.4-7.5,7.5-7.5
		S321.1,447.7,321.1,451.9"/>
</g>
<g transform="matrix(0.99885,0,0,0.99885,-234.73,-72.916)">
</g>
<g transform="matrix(0.99885,0,0,0.99885,192.94,1.19053)">
</g>
<g transform="matrix(0.99885,0,0,0.99885,192.94,1.19053)">
	<path vector-effect="none" class="st8" d="M0,0h54.8v159.3H0V0"/>
</g>
<g transform="matrix(0.99885,0,0,0.99885,192.94,1.19053)">
</g>
<g transform="matrix(0.99885,0,0,0.99885,241.652,16.1733)">
</g>
<g transform="matrix(0.99885,0,0,0.99885,241.652,16.1733)">
	<path vector-effect="none" class="st9" d="M4.4,23.7c0,13.1-10.6,23.7-23.7,23.7S-43,36.8-43,23.7S-32.4,0-19.3,0
		S4.4,10.6,4.4,23.7"/>
</g>
<g transform="matrix(0.99885,0,0,0.99885,241.652,16.1733)">
</g>
<g transform="matrix(0.99885,0,0,0.99885,252.2,36.4451)">
</g>
<g transform="matrix(0.99885,0,0,0.99885,252.2,36.4451)">
	<text transform="matrix(1.0012 0 0 1.0012 -52.0597 7.3762)" class="st10 st11">10 samples</text>
</g>
<g transform="matrix(0.99885,0,0,0.99885,252.2,36.4451)">
</g>
<g transform="matrix(0.99885,0,0,0.99885,257.85,49.569)">
</g>
<g transform="matrix(0.99885,0,0,0.99885,257.85,49.569)">
	<path vector-effect="none" class="st9" d="M-28,7.5c0,4.1-3.4,7.5-7.5,7.5S-43,11.6-43,7.5S-39.6,0-35.5,0S-28,3.4-28,7.5"/>
</g>
<g transform="matrix(0.99885,0,0,0.99885,257.85,49.569)">
</g>
<g transform="matrix(0.99885,0,0,0.99885,254.697,65.0512)">
</g>
<g transform="matrix(0.99885,0,0,0.99885,254.697,65.0512)">
	<text transform="matrix(1.0012 0 0 1.0012 -52.0596 7.3766)" class="st10 st11">1 sample</text>
</g>
<g transform="matrix(0.99885,0,0,0.99885,254.697,65.0512)">
</g>
<g transform="matrix(0.99885,0,0,0.99885,207.923,85.3715)">
</g>
<g transform="matrix(0.99885,0,0,0.99885,207.923,85.3715)">
	<path vector-effect="non-scaling-stroke" class="st3" d="M15,7.5c0,4.1-3.4,7.5-7.5,7.5S0,11.6,0,7.5S3.4,0,7.5,0S15,3.4,15,7.5"/>
</g>
<g transform="matrix(0.99885,0,0,0.99885,207.923,85.3715)">
</g>
<g transform="matrix(0.99885,0,0,0.99885,237.889,85.3715)">
</g>
<g transform="matrix(0.99885,0,0,0.99885,237.889,85.3715)">
	<text transform="matrix(1.0012 0 0 1.0012 -6.0068 10.9701)" class="st10 st12">C</text>
</g>
<g transform="matrix(0.99885,0,0,0.99885,237.889,85.3715)">
</g>
<g transform="matrix(0.99885,0,0,0.99885,207.923,105.349)">
</g>
<g transform="matrix(0.99885,0,0,0.99885,207.923,105.349)">
	<path vector-effect="non-scaling-stroke" class="st5" d="M15,7.5c0,4.1-3.4,7.5-7.5,7.5S0,11.6,0,7.5S3.4,0,7.5,0S15,3.4,15,7.5"/>
</g>
<g transform="matrix(0.99885,0,0,0.99885,207.923,105.349)">
</g>
<g transform="matrix(0.99885,0,0,0.99885,237.889,105.349)">
</g>
<g transform="matrix(0.99885,0,0,0.99885,237.889,105.349)">
	<text transform="matrix(1.0012 0 0 1.0012 -6.0068 10.9701)" class="st10 st12">B</text>
</g>
<g transform="matrix(0.99885,0,0,0.99885,237.889,105.349)">
</g>
<g transform="matrix(0.99885,0,0,0.99885,207.923,125.326)">
</g>
<g transform="matrix(0.99885,0,0,0.99885,207.923,125.326)">
	<path vector-effect="non-scaling-stroke" class="st7" d="M15,7.5c0,4.1-3.4,7.5-7.5,7.5S0,11.6,0,7.5S3.4,0,7.5,0S15,3.4,15,7.5"/>
</g>
<g transform="matrix(0.99885,0,0,0.99885,207.923,125.326)">
</g>
<g transform="matrix(0.99885,0,0,0.99885,237.889,125.326)">
</g>
<g transform="matrix(0.99885,0,0,0.99885,237.889,125.326)">
	<text transform="matrix(1.0012 0 0 1.0012 -6.0068 10.9702)" class="st10 st12">A</text>
</g>
<g transform="matrix(0.99885,0,0,0.99885,237.889,125.326)">
</g>
<g transform="matrix(1,0,0,1,0,0)">
</g>
</svg>
